<?xml version="1.0" encoding="UTF-8"?>
<!--Generator: Apple Native CoreSVG 341-->
<!DOCTYPE svg
PUBLIC "-//W3C//DTD SVG 1.1//EN"
       "http://www.w3.org/Graphics/SVG/1.1/DTD/svg11.dtd">
<svg version="1.1" xmlns="http://www.w3.org/2000/svg" xmlns:xlink="http://www.w3.org/1999/xlink" viewBox="0 0 1024 1024">
 <g/>
 <g id="magnifier">
  <path d="M319.843 330.938l-22.6128-22.7663c5.56607-7.65732 8.83954-17.0698 8.83954-27.2837c0-26.1817-21.2855-47.4568-47.4673-47.4568c-26.1828 0-47.4683 21.2751-47.4683 47.4568c0 26.1932 21.2855 47.4672 47.4683 47.4672c9.73706 0 18.6726-2.99277 26.1222-8.0434l22.8194 22.8675c1.67712 1.67691 3.89865 2.47522 6.23712 2.47522c4.96204 0 8.51089-3.7504 8.51089-8.65381C322.292 334.694 321.446 332.541 319.843 330.938zM258.591 316.233c-19.4927 0-35.3334-15.851-35.3334-35.3448c0-19.4834 15.8407-35.3333 35.3334-35.3333c19.5157 0 35.3449 15.8499 35.3449 35.3333C293.936 300.382 278.107 316.233 258.591 316.233z" fill="#F0F0F0" style="fill:#F0F0F0;"/>
 </g>
</svg>
