<?xml version="1.0" encoding="UTF-8"?>
<!--Generator: Apple Native CoreSVG 341-->
<!DOCTYPE svg
PUBLIC "-//W3C//DTD SVG 1.1//EN"
       "http://www.w3.org/Graphics/SVG/1.1/DTD/svg11.dtd">
<svg version="1.1" xmlns="http://www.w3.org/2000/svg" xmlns:xlink="http://www.w3.org/1999/xlink" viewBox="0 0 1024 1024">
 <defs>
  <linearGradient id="SVGID_1_" x1="2203.14" y1="176.474" x2="2363.14" y2="176.474" gradientUnits="userSpaceOnUse" gradientTransform="matrix(0.0000003 1 -1 0.0000003 928.4728394 -1531.1361084)">
   <stop offset="0" stop-color="#ffffff" stop-opacity="1"/>
   <stop offset="0" stop-color="#c8cac8" stop-opacity="1"/>
   <stop offset="1" stop-color="#abadab" stop-opacity="1"/>
  </linearGradient>
 </defs>
 <g/>
 <g id="chiclet6">
  <path d="M832 773.719c0 2.2254 0.0009766 4.4505-0.0131226 6.6759c-0.0107422 1.87445-0.0324097 3.74847-0.0831299 5.62231c-0.110718 4.08337-0.351013 8.20221-1.07697 12.2403c-0.736328 4.09644-1.93805 7.909-3.83258 11.6309c-1.862 3.65814-4.29517 7.00574-7.19769 9.90826s-6.25018 5.33563-9.90826 7.19769c-3.72192 1.89453-7.53448 3.09625-11.6309 3.83264c-4.03802 0.725891-8.15686 0.966186-12.2402 1.0769c-1.8739 0.0507812-3.74792 0.0723877-5.62238 0.0831909C778.169 832.001 775.944 832 773.719 832h-43.4375c-2.22546 0-4.4505 0.0009155-6.67596-0.0131226c-1.87439-0.0107422-3.74841-0.0324097-5.62231-0.0831909c-4.08337-0.110657-8.20221-0.351013-12.2402-1.07684c-4.09644-0.736389-7.909-1.93817-11.6309-3.83264c-3.65814-1.86206-7.0058-4.29517-9.90833-7.19769s-5.33563-6.25018-7.19769-9.90826c-1.89447-3.72198-3.09625-7.53455-3.83264-11.631c-0.72583-4.03802-0.966186-8.15686-1.07684-12.2402c-0.0508423-1.87384-0.0724487-3.74792-0.0831909-5.62231c-0.0140991-2.22546-0.0131226-4.4505-0.0131226-6.67596L672 730.281c0-2.2254-0.0009155-4.4505 0.0131226-6.6759c0.0108032-1.87439 0.0324097-3.74841 0.0831909-5.62231c0.110718-4.08337 0.351013-8.20221 1.0769-12.2403c0.736389-4.09637 1.93811-7.909 3.83264-11.6309c1.862-3.65808 4.29517-7.00574 7.19769-9.90826c2.90247-2.90253 6.25012-5.33569 9.90826-7.19769c3.72192-1.89453 7.53448-3.09625 11.6309-3.83258c4.03802-0.725952 8.15686-0.966248 12.2402-1.07697c1.8739-0.0507812 3.74792-0.0724487 5.62238-0.0831909c2.2254-0.0140381 4.4505-0.0130615 6.6759-0.0130615L773.719 672c2.22546 0 4.4505-0.0009766 6.67596 0.0131226c1.87439 0.0107422 3.74841 0.0324097 5.62231 0.0831909c4.08337 0.110718 8.20221 0.351013 12.2402 1.0769c4.09644 0.736328 7.909 1.93805 11.6309 3.83264c3.65814 1.862 7.00574 4.29511 9.90826 7.19763s5.33569 6.25018 7.19769 9.90833c1.89459 3.72186 3.09631 7.53448 3.83264 11.6309c0.725891 4.03802 0.966186 8.15686 1.0769 12.2402c0.0507812 1.8739 0.0724487 3.74792 0.0831909 5.62231C832.001 725.831 832 728.056 832 730.281V773.719z" fill="url(#SVGID_1_)" style="fill:url(#SVGID_1_);"/>
 </g>
</svg>
