<?xml version="1.0" encoding="UTF-8"?>
<!--Generator: Apple Native CoreSVG 341-->
<!DOCTYPE svg
PUBLIC "-//W3C//DTD SVG 1.1//EN"
       "http://www.w3.org/Graphics/SVG/1.1/DTD/svg11.dtd">
<svg version="1.1" xmlns="http://www.w3.org/2000/svg" xmlns:xlink="http://www.w3.org/1999/xlink" viewBox="0 0 1024 1024">
 <defs>
  <linearGradient id="SVGID_1_" x1="1982.79" y1="416.474" x2="2142.79" y2="416.474" gradientUnits="userSpaceOnUse" gradientTransform="matrix(0.0000003 1 -1 0.0000003 928.4728394 -1531.1361084)">
   <stop offset="0" stop-color="#ffffff" stop-opacity="1"/>
   <stop offset="0" stop-color="#ff70bb" stop-opacity="1"/>
   <stop offset="1" stop-color="#ff2396" stop-opacity="1"/>
  </linearGradient>
 </defs>
 <g/>
 <g id="chiclet2">
  <path d="M592 553.373c0 2.2254 0.0009766 4.4505-0.0131226 6.6759c-0.0107422 1.87445-0.0324097 3.74847-0.0831299 5.62238c-0.110718 4.08337-0.351013 8.20221-1.07697 12.2402c-0.736328 4.09644-1.93805 7.909-3.83258 11.6309c-1.86206 3.65814-4.29517 7.0058-7.19769 9.90826c-2.90253 2.90253-6.25018 5.33569-9.90826 7.19769c-3.72192 1.89453-7.53455 3.09625-11.6309 3.83264c-4.03809 0.725891-8.15686 0.966248-12.2402 1.0769c-1.87396 0.0507812-3.74799 0.0724487-5.62238 0.0831909c-2.2254 0.0140381-4.4505 0.0131226-6.6759 0.0131226h-43.4375c-2.22543 0-4.4505 0.0009766-6.67593-0.0131226c-1.87442-0.0107422-3.74844-0.0323486-5.62231-0.0831299c-4.08337-0.110718-8.20221-0.351013-12.2403-1.0769c-4.09644-0.736389-7.909-1.93811-11.6309-3.83264c-3.65814-1.86206-7.00577-4.29517-9.90829-7.19769s-5.33563-6.25012-7.19769-9.90826c-1.8945-3.72192-3.09625-7.53448-3.83264-11.6309c-0.725861-4.03809-0.966217-8.15686-1.07687-12.2403c-0.0508118-1.87384-0.0724182-3.74786-0.0831909-5.62231c-0.0140686-2.2254-0.0131226-4.4505-0.0131226-6.6759L432 509.936c0-2.22543-0.0009155-4.4505 0.0131226-6.6759c0.0107727-1.87442 0.0324097-3.74844 0.0831909-5.62235c0.110687-4.08337 0.351013-8.20221 1.07687-12.2403c0.736389-4.0964 1.93814-7.909 3.83264-11.6309c1.86203-3.65811 4.29517-7.00574 7.19769-9.90826c2.9025-2.90253 6.25012-5.33566 9.90826-7.19769c3.72195-1.89453 7.53452-3.09628 11.6309-3.83261c4.03806-0.725922 8.15689-0.966217 12.2403-1.07693c1.87387-0.0507812 3.74789-0.0724487 5.62235-0.0831909c2.22543-0.0140686 4.4505-0.013092 6.67593-0.013092h43.4375c2.2254-3.05e-05 4.4505-0.0010071 6.6759 0.013092c1.87439 0.0107422 3.74847 0.0324097 5.62238 0.0831604c4.08337 0.110718 8.20221 0.351013 12.2402 1.07693c4.09637 0.736328 7.909 1.93805 11.6309 3.83261c3.65808 1.862 7.00574 4.29514 9.90826 7.19766s5.33569 6.25018 7.19769 9.90829c1.89453 3.72189 3.09631 7.53448 3.83264 11.6309c0.725891 4.03802 0.966186 8.15686 1.0769 12.2402c0.0507812 1.8739 0.0724487 3.74796 0.0831909 5.62235C592.001 505.485 592 507.71 592 509.936V553.373z" fill="url(#SVGID_1_)" style="fill:url(#SVGID_1_);"/>
 </g>
</svg>
